<?xml version="1.0" encoding="utf-8"?>
<!-- Generator: Adobe Illustrator 24.2.0, SVG Export Plug-In . SVG Version: 6.00 Build 0)  -->
<svg version="1.1" id="Capa_1" xmlns="http://www.w3.org/2000/svg" xmlns:xlink="http://www.w3.org/1999/xlink" x="0px" y="0px"
	 viewBox="0 0 400 100" style="enable-background:new 0 0 400 100;" xml:space="preserve">
<style type="text/css">
	.st0{fill:#FFFFFF;}
	.st1{fill:#0071BC;}
	.st2{fill:#1A1A1A;}
</style>
<path d="M305.4,103.7"/>
<g>
	<polygon class="st0" points="352.1,92.1 341.3,69.1 333.2,71.4 344.5,94.9 	"/>
	<rect x="248" y="65.1" class="st1" width="149.4" height="5.4"/>
	<g>
		<path class="st2" d="M3.5,10h21.9c5.2,0,9.9,1,13.9,3c4,2,7.1,4.8,9.4,8.4C50.9,25,52,29.2,52,34.1s-1.1,9.1-3.3,12.7
			c-2.2,3.6-5.4,6.4-9.4,8.4c-4,2-8.6,3-13.9,3H3.5V10z M24.9,49c4.8,0,8.7-1.3,11.5-4c2.9-2.7,4.3-6.3,4.3-10.9
			c0-4.6-1.4-8.2-4.3-10.9c-2.9-2.7-6.7-4-11.5-4H14.7V49H24.9z"/>
		<path class="st2" d="M95.8,42.7h-28c0.5,2.3,1.7,4.1,3.6,5.4c1.9,1.3,4.2,2,7,2c1.9,0,3.6-0.3,5.1-0.9c1.5-0.6,2.9-1.5,4.2-2.7
			l5.7,6.2c-3.5,4-8.6,6-15.3,6c-4.2,0-7.9-0.8-11.1-2.4c-3.2-1.6-5.7-3.9-7.4-6.8c-1.7-2.9-2.6-6.2-2.6-9.9c0-3.6,0.9-6.9,2.6-9.8
			c1.7-2.9,4.1-5.2,7.1-6.8c3-1.6,6.4-2.4,10.1-2.4c3.6,0,6.9,0.8,9.9,2.3c2.9,1.6,5.2,3.8,6.9,6.7c1.7,2.9,2.5,6.3,2.5,10.2
			C96,39.9,95.9,40.9,95.8,42.7z M70.6,30.8c-1.7,1.4-2.7,3.3-3,5.7h18.3c-0.4-2.3-1.4-4.2-3-5.6c-1.7-1.4-3.7-2.1-6.1-2.1
			C74.3,28.7,72.3,29.4,70.6,30.8z"/>
		<path class="st2" d="M118.6,21.9c2.2-0.9,4.7-1.4,7.5-1.4v9.9c-1.2-0.1-2-0.1-2.4-0.1c-3.1,0-5.5,0.9-7.2,2.6
			c-1.7,1.7-2.6,4.3-2.6,7.8v17.5h-10.7V21.1h10.3V26C114.7,24.2,116.4,22.9,118.6,21.9z"/>
		<path class="st2" d="M191.1,24.7c2.7,2.7,4.1,6.8,4.1,12.3v21.2h-10.7V38.6c0-2.9-0.6-5.1-1.8-6.6c-1.2-1.4-3-2.2-5.2-2.2
			c-2.5,0-4.5,0.8-6,2.4c-1.5,1.6-2.2,4.1-2.2,7.3v18.6h-10.7V38.6c0-5.8-2.3-8.8-7-8.8c-2.5,0-4.5,0.8-5.9,2.4
			c-1.5,1.6-2.2,4.1-2.2,7.3v18.6h-10.7V21.1h10.3v4.3c1.4-1.6,3.1-2.8,5.1-3.6c2-0.8,4.2-1.2,6.6-1.2c2.6,0,5,0.5,7.1,1.6
			c2.1,1,3.8,2.5,5.1,4.5c1.5-1.9,3.4-3.4,5.8-4.5c2.3-1.1,4.9-1.6,7.6-1.6C184.7,20.6,188.4,21.9,191.1,24.7z"/>
		<path class="st2" d="M233,24.7c3.1,2.7,4.6,6.9,4.6,12.4v21.2h-10.1v-4.6c-2,3.4-5.8,5.2-11.3,5.2c-2.8,0-5.3-0.5-7.4-1.4
			c-2.1-1-3.7-2.3-4.8-4c-1.1-1.7-1.7-3.6-1.7-5.8c0-3.4,1.3-6.2,3.9-8.1c2.6-2,6.6-3,12-3h8.5c0-2.3-0.7-4.1-2.1-5.4
			c-1.4-1.3-3.6-1.9-6.4-1.9c-2,0-3.9,0.3-5.8,0.9c-1.9,0.6-3.5,1.5-4.9,2.5l-3.9-7.5c2-1.4,4.4-2.5,7.3-3.3
			c2.8-0.8,5.7-1.2,8.7-1.2C225.6,20.6,230,21.9,233,24.7z M223.9,50.2c1.4-0.8,2.4-2.1,3-3.8v-3.8h-7.4c-4.4,0-6.6,1.4-6.6,4.3
			c0,1.4,0.5,2.5,1.6,3.3c1.1,0.8,2.6,1.2,4.4,1.2C220.8,51.5,222.5,51.1,223.9,50.2z"/>
		<path class="st1" d="M248.1,10h11.2v39.1h24.2v9.1h-35.3V10z"/>
		<path class="st1" d="M289.5,14.2c-1.2-1.1-1.9-2.6-1.9-4.3c0-1.7,0.6-3.1,1.9-4.3c1.2-1.1,2.8-1.7,4.8-1.7c2,0,3.6,0.6,4.8,1.7
			c1.2,1.1,1.9,2.5,1.9,4.1c0,1.8-0.6,3.3-1.9,4.4c-1.2,1.2-2.8,1.8-4.8,1.8C292.4,15.9,290.8,15.4,289.5,14.2z M289,21.1h10.7v37.1
			H289V21.1z"/>
		<path class="st1" d="M343.4,24.7c2.8,2.8,4.2,6.8,4.2,12.3v21.2h-10.7V38.6c0-2.9-0.6-5.1-1.9-6.6c-1.3-1.4-3.1-2.2-5.6-2.2
			c-2.7,0-4.9,0.8-6.5,2.5c-1.6,1.7-2.4,4.2-2.4,7.5v18.3h-10.7V21.1H320v4.3c1.4-1.6,3.2-2.8,5.3-3.6c2.1-0.8,4.4-1.3,7-1.3
			C336.9,20.6,340.6,21.9,343.4,24.7z"/>
		<path class="st1" d="M373.3,43.6l-5.2,5.1v9.4h-10.7V7.1h10.7V36l15.7-14.9h12.8l-15.4,15.7L398,58.2h-13L373.3,43.6z"/>
	</g>
	<g>
		<path class="st0" d="M326.5,44c10.9,10.2,21.8,20.3,32.8,30.5c-2.2,0-5.4,0.1-9.4,0.4c-2.3,0.2-4.1,0.4-4.5,0.4
			c-6.5,0.8-14.3,8.6-18.4,13L326.5,44z"/>
		<g>
			<path class="st2" d="M324.7,41c1.2,1.2,2.5,2.3,3.7,3.5c3,2.8,6.1,5.6,9.2,8.4c5.7,5.3,11.4,10.5,17.1,15.8c2.5,2.3,5,4.6,7.6,7
				c0.1,0.1,0.4,0.2,0.3,0.4c-0.1,0.2-0.3,0.1-0.5,0.1c-3.2,0.2-6.5,0.4-9.7,0.6c-1.6,0.1-3.3,0.2-4.9,0.3c-0.7,0.1-0.7,0.1-0.4,0.7
				c2.1,4.7,4.2,9.5,6.3,14.2c0.2,0.4,0.1,0.6-0.3,0.8c-3.2,1.4-6.4,2.8-9.7,4.2c-0.5,0.2-0.6,0-0.8-0.4c-2.1-4.7-4.1-9.4-6.2-14.1
				c-0.4-0.8-0.3-0.8-1-0.2c-3.5,3.3-7,6.7-10.5,10c-0.1,0.1-0.2,0.3-0.4,0.3c-0.2-0.1-0.1-0.3-0.1-0.5c0-16.9,0-33.9,0-50.8
				c0-0.1,0-0.3,0-0.4C324.6,41,324.7,41,324.7,41z M328,84.8c0.2,0,0.3-0.2,0.4-0.3c2.8-2.7,5.6-5.4,8.4-8.1
				c0.4-0.4,0.5-0.4,0.7,0.1c0.8,1.8,1.6,3.7,2.4,5.5c1.5,3.4,3,6.8,4.5,10.3c0.2,0.6,0.5,0.5,1.2,0c0.8-0.5,1.7-0.8,2.5-1.1
				c0.8-0.2,0.9-0.4,0.7-0.9c-0.7-1.6-1.4-3.1-2.1-4.7c-1.6-3.7-3.2-7.4-4.9-11.1c-0.2-0.4-0.1-0.5,0.3-0.6c2.8-0.2,5.7-0.4,8.5-0.5
				c1.3-0.1,2.5-0.2,3.9-0.3c-8.9-8.2-17.7-16.3-26.7-24.5C328,60.8,328,72.8,328,84.8z"/>
		</g>
	</g>
	<path class="st1" d="M344.5,94.3"/>
</g>
</svg>
