<svg id="Capa_1" data-name="Capa 1" xmlns="http://www.w3.org/2000/svg" viewBox="0 0 642 642"><path d="M366.17,175.47c-10.16,13.85-20.24,27.44-30.1,41.17-2.26,3.15-4.65,4.41-8.66,4.4q-132.72-.21-265.44-.12H55.71V421.83H60.8q183,0,366.09.09c4,0,4.86-1.21,4.82-5-.2-17.42-.13-34.84,0-52.26,0-1.55.5-3.76,1.57-4.53,9.16-6.57,13.72-15.72,15.59-26.5.08-.42.27-.82.13-.4,7.29,4.6,14.36,10,22.19,13.76,11.77,5.69,12,5.22,12,18.43q0,46.13,0,92.24c0,11.9-4.62,21.11-16.15,25.62a28.79,28.79,0,0,1-10.27,1.56q-174.92.11-349.83.06c-25.63,0-51.28-.37-76.9.16A25.66,25.66,0,0,1,4.12,459q.33-128.91,0-257.83c0-15.31,12.73-25.94,26-25.9,110.46.33,220.91.19,331.37.19Z"/><path d="M491.89,217.35c8.56-6.84,16.9-13.45,25.18-20.16q11.07-9,22-18.15c6.85-5.76,10-6.1,16.86-.45,14.64,12.14,28.82,24.87,43.74,36.65,11.11,8.76,23.05,16.49,34.73,24.51,2,1.35,3.17,2.39,3.18,5.05q.35,58.29-34.11,105.27c-2.44,3.33-4.59,3.66-8,2.23-5.92-2.48-12-4.56-17.91-7.11a125.12,125.12,0,0,0-30.55-9c-13.51-2.08-24.73-9.58-35.89-16.77-14.52-9.37-30.73-12.77-47.4-15.82-18.91-3.46-36.46,1.09-54.32,5.73-12.74,3.31-25.75,5.68-39,4.93a37,37,0,0,1-10.66-2.18c-6.09-2.28-8.17-7-6.62-13.37,2.16-8.85,8-14.76,15.39-19.42,12.17-7.67,25.62-12.08,39.57-14.91,5.51-1.12,11.29-.88,16.92-1.51,3.46-.38,6.87-1.28,10.32-1.84,8-1.32,16.09-2.51,24.12-3.89s16.48-2.36,24.42-4.62c9.26-2.64,16.5-13.42,16.46-22.22C500.26,224.27,496.3,220.9,491.89,217.35Z"/><path d="M511.2,149.49c-31,19.73-58.95,42.36-86.47,65.58a27,27,0,0,1-9.4,5.34c-9.64,2.83-16.89,8.91-24,15.61-5.82,5.5-12.37,10.24-18.28,15.65-2.94,2.71-6.25,5.8-7.5,9.38-2.39,6.81-6.87,11.43-12.38,15.41q-15.3,11-30.72,21.93c-5.21,3.7-10.53,1.34-11.27-5.15a14.72,14.72,0,0,1,.84-6.84c4.11-10.44,8.26-20.87,12.83-31.12,6.44-14.45,17.17-26.06,26.38-38.67,5.78-7.92,11.3-16,16.88-24.06a28.76,28.76,0,0,1,13.4-10.87q36.29-14.2,72.53-28.53c9.21-3.65,18.16-8,27.48-11.33C492.75,137.8,502.38,141.42,511.2,149.49Z"/><path d="M381.48,263.33c8.35-7.14,15.54-13.55,23-19.62,27.11-22.09,54-44.48,81.62-65.92,13.59-10.55,28.61-19.28,43-28.77a8,8,0,0,1,4-1.6c4.89,0,9.47-.44,13.87-3.14,1.21-.74,4.71.54,5.87,1.95.93,1.13.47,4.14-.36,5.83a59.35,59.35,0,0,1-16,20.18c-20.22,15.7-40.61,31.17-60.93,46.75-12.54,9.61-25.13,19.18-37.54,28.95-5,3.94-10.8,5.26-16.79,5.58-11.9.63-22.84,4.68-33.84,8.64-1,.35-1.92.72-2.9,1A20.36,20.36,0,0,1,381.48,263.33Z"/><path d="M193.39,337.13c2.64-7.83,5.11-15.73,8-23.47a71.87,71.87,0,0,1,5.51-10.9,16.92,16.92,0,0,1,4.09-4.52c5.51-4.43,11.91-3.41,15,2.87,3.56,7.18,6.42,14.71,9.6,22.09.86,2,1.8,4,2.65,6,7.25,17.38,25.1,22.6,39.45,18.3a2.21,2.21,0,0,1,.41-.14c11.07-.62,18.14-6.45,22.86-16.31,6.36-13.28,18.89-20.38,30.28-28.52,4.46-3.18,8.93-6.35,12.72-9,1.68,6.55,3.39,12.73,4.76,19a4.68,4.68,0,0,1-1.51,3.66c-7.41,6.42-14.39,13.58-22.62,18.72-6.53,4.08-14.63,5.61-22,8.32-3.44,1.26-8.14.5-9.28,5.62-.05.21-.43.43-.7.49-10.77,2.35-21.29,6.84-32.69,4.2-12-2.78-21-9.39-26-20.83-3.63-8.29-6.93-16.73-10.68-25-1.15-2.51-3.3-4.55-5-6.81-2.58,2-6.36,3.47-7.51,6.09-4.42,10.12-8,20.63-11.93,31-1.56,4.08-3.19,8.14-5.06,12.08-.53,1.1-2.46,2.64-3.05,2.39-1.23-.54-2.7-2.08-2.81-3.31a119.89,119.89,0,0,1-.62-16.61c.7-13.58,1.91-27.13,2.69-40.71.16-2.9-.66-5.87-1-8.8l-1.72-.8c-3.42,3.19-7.25,6-10.2,9.61-11.79,14.34-18.65,31.3-24.77,48.54C146,358.08,141,376.23,139.11,395.09c-.14,1.46-1.79,3.92-2.77,3.94-2.86.05-2.55-2.39-2.33-4.54,2.68-26.4,10.41-51.42,20.93-75.64C160.08,307,166.05,295.6,174.86,286a36.64,36.64,0,0,1,8.39-6.92c5.74-3.37,10.87-1.11,11.31,5.65.59,9.14.05,18.37-.39,27.55-.41,8.26-1.34,16.5-2,24.75Z"/><path d="M447.78,306.91c11.6,1.95,23.36,3.27,34.75,6.06,8.69,2.13,16.92,6.13,25.35,9.32,2.63,1,4,2.86,3.67,5.74-.53,4.32-.54,8.8-1.8,12.89-1.75,5.69-6.43,8.3-11.83,5.51-13.49-7-28.93-10.78-39.38-22.92-4.06-4.72-7.8-9.7-11.69-14.56Z"/><path d="M400.5,318.84l27.81-8.68c2.34,4.72,4.72,9.19,6.79,13.8,4.29,9.54-1.91,23.77-11.78,27.33-6.11,2.2-12.07.11-14.71-5.82-1.64-3.66-2.21-7.79-3.39-11.68C403.73,328.82,402.11,323.9,400.5,318.84Z"/><path d="M359.57,316.91c12.13,6.43,24.89,4.41,38.55,2.31-4.82,8.42-8.25,16.38-15.77,21.42s-14.81,3.46-18.37-4.8c-2.5-5.79-3.69-12.14-5.47-18.24Z"/></svg>