<svg xmlns="http://www.w3.org/2000/svg" viewBox="0 0 642 642"><defs><style>.cls-1{fill:#fff;}</style></defs><g id="Capa_2" data-name="Capa 2"><g id="Capa_1-2" data-name="Capa 1"><path class="cls-1" d="M642,410.32V642H413.81a10.62,10.62,0,0,1,1.56-.67c7.56-1.87,12.56-6.73,14.27-14.1,1.81-7.8-.58-14.66-7.13-19.76-4.39-3.41-9.47-3.92-14.81-3.92q-151.93.08-303.87,0a67.65,67.65,0,0,1-12.49-.93c-31.19-6-52.93-32.41-52.93-64.17q0-207.75,0-415.52c0-9.63-.33-19.35.74-28.89,3.44-30.86,31.34-55.61,62.3-55.62q219.8-.06,439.59,0a50.71,50.71,0,0,1,9.68.92C582.22,45.6,603.6,71.78,603.59,104v77.1q0,114.26,0,228.52c0,8.24,3.94,14.16,11.44,17.54a19,19,0,0,0,20.64-3.61C639.53,419.9,641.1,415.29,642,410.32ZM90.46,460.56h5.23q121.25,0,242.49.08a8.64,8.64,0,0,0,7.3-3.45c12.26-14.06,27.64-22.56,46.36-23.68,12.75-.76,25.57-.25,38.36-.31h5.24c0-14.76-.51-28.94.12-43.08.8-17.68,8.33-32.68,21.28-44.62,5.56-5.14,12.12-9.18,18.72-14.08-13.51-49.12-31.72-97.6-47.29-147.55l-145,187.05L244.4,305.2Zm395.13,22.82h-6.72c-30.65,0-61.3-.08-91.95.07-13.62.07-22.27,13-17.67,25.8,2.55,7.11,10.26,12.23,18.12,12.19,31.28-.16,62.57,0,93.85-.15,3.53,0,4.46.88,4.45,4.44q-.23,47.26,0,94.54a18.85,18.85,0,0,0,25.67,17.49c6.41-2.39,12.44-9.17,12.37-19.09-.19-30.93-.07-61.87-.06-92.8,0-1.44.19-2.89.31-4.49H555c22.79,0,45.59.08,68.38-.11,11-.09,19.69-11.44,17.4-22.14-2.18-10.23-9.07-15.69-20.2-15.72q-46.5-.11-93,0c-3.24,0-4.06-.92-4.05-4.09.12-30.7.07-61.4.06-92.11a32.43,32.43,0,0,0-.22-5.22c-1.78-11.2-11.19-16.89-19.83-16.18-12.53,1-18.1,10.63-18,20,.22,30.82.09,61.64.09,92.46Zm-241-284.33c-.15-26-20.45-46-46.41-45.78-24.86.18-45.19,20.6-45.13,45.32A46,46,0,0,0,199,244.77C224.06,244.7,244.78,224,244.62,199.05Z"/><path d="M642,410.32c-.9,5-2.47,9.58-6.31,13.18a19,19,0,0,1-20.64,3.61c-7.5-3.38-11.44-9.3-11.44-17.54q-.06-114.26,0-228.52V104c0-32.17-21.37-58.35-52.85-64.58a50.71,50.71,0,0,0-9.68-.92q-219.79-.06-439.59,0c-31,0-58.86,24.76-62.3,55.62-1.07,9.54-.74,19.26-.74,28.89q-.06,207.77,0,415.52c0,31.76,21.74,58.22,52.93,64.17a67.65,67.65,0,0,0,12.49.93q151.94.08,303.87,0c5.34,0,10.42.51,14.81,3.92,6.55,5.1,8.94,12,7.13,19.76-1.71,7.37-6.71,12.23-14.27,14.1a10.62,10.62,0,0,0-1.56.67H97a18,18,0,0,0-2.67-.59,95.67,95.67,0,0,1-38.75-11.17C27.8,615.26,10,592.5,2.76,561.71,1.47,556.22.9,550.57,0,545V97a13.09,13.09,0,0,0,.57-2.32A95,95,0,0,1,12.34,54.44C27.34,27.4,49.81,10,80,2.81,85.57,1.49,91.32.92,97,0H545c5.78.93,11.7,1.37,17.33,2.86Q623.2,18.94,639.17,80c1.45,5.54,1.91,11.34,2.83,17Z"/><path class="cls-1" d="M0,545c.9,5.57,1.47,11.22,2.76,16.71,7.24,30.79,25,53.55,52.82,68.53a95.67,95.67,0,0,0,38.75,11.17A18,18,0,0,1,97,642H0Z"/><path class="cls-1" d="M97,0C91.32.92,85.57,1.49,80,2.81,49.81,10,27.34,27.4,12.34,54.44A95,95,0,0,0,.57,94.68,13.09,13.09,0,0,1,0,97V0Z"/><path class="cls-1" d="M642,97c-.92-5.68-1.38-11.48-2.83-17Q623.32,19,562.33,2.86C556.7,1.37,550.78.93,545,0h97Z"/><path d="M90.46,460.56,244.4,305.2l38.87,65.72,145-187c15.57,49.95,33.78,98.43,47.29,147.55-6.6,4.9-13.16,8.94-18.72,14.08-12.95,11.94-20.48,26.94-21.28,44.62-.63,14.14-.12,28.32-.12,43.08H430.2c-12.79.06-25.61-.45-38.36.31-18.72,1.12-34.1,9.62-46.36,23.68a8.64,8.64,0,0,1-7.3,3.45q-121.24-.15-242.49-.08Z"/><path d="M485.59,483.38v-5.06c0-30.82.13-61.64-.09-92.46-.06-9.4,5.51-19,18-20,8.64-.71,18.05,5,19.83,16.18a32.43,32.43,0,0,1,.22,5.22c0,30.71.06,61.41-.06,92.11,0,3.17.81,4.1,4.05,4.09q46.51-.17,93,0c11.13,0,18,5.49,20.2,15.72,2.29,10.7-6.4,22-17.4,22.14-22.79.19-45.59.09-68.38.11h-31.1c-.12,1.6-.31,3-.31,4.49,0,30.93-.13,61.87.06,92.8.07,9.92-6,16.7-12.37,19.09a18.85,18.85,0,0,1-25.67-17.49q-.18-47.26,0-94.54c0-3.56-.92-4.45-4.45-4.44-31.28.15-62.57,0-93.85.15-7.86,0-15.57-5.08-18.12-12.19-4.6-12.83,4.05-25.73,17.67-25.8,30.65-.15,61.3-.06,91.95-.07Z"/><path d="M244.62,199.05c.16,24.9-20.56,45.65-45.64,45.72a46,46,0,0,1-45.9-46.18c-.06-24.72,20.27-45.14,45.13-45.32C224.17,153.07,244.47,173.09,244.62,199.05Z"/></g></g></svg>