<?xml version="1.0" encoding="UTF-8"?> <svg xmlns="http://www.w3.org/2000/svg" xmlns:xlink="http://www.w3.org/1999/xlink" width="410" height="397" viewBox="0 0 410 397"><defs><style>.a{fill:none;}.b{opacity:0.5;clip-path:url(#a);}.c{fill:#fff;}</style><clipPath id="a"><rect class="a" width="410" height="397"></rect></clipPath></defs><g class="b"><g transform="translate(-632 -1308)"><circle class="c" cx="4" cy="4" r="4" transform="translate(632 1308)"></circle></g><g transform="translate(-609 -1308)"><circle class="c" cx="4" cy="4" r="4" transform="translate(632 1308)"></circle></g><g transform="translate(-586 -1308)"><circle class="c" cx="4" cy="4" r="4" transform="translate(632 1308)"></circle></g><g transform="translate(-563 -1308)"><circle class="c" cx="4" cy="4" r="4" transform="translate(632 1308)"></circle></g><g transform="translate(-540 -1308)"><circle class="c" cx="4" cy="4" r="4" transform="translate(632 1308)"></circle></g><g transform="translate(-517 -1308)"><circle class="c" cx="4" cy="4" r="4" transform="translate(632 1308)"></circle></g><g transform="translate(-494 -1308)"><circle class="c" cx="4" cy="4" r="4" transform="translate(632 1308)"></circle></g><g transform="translate(-471 -1308)"><circle class="c" cx="4" cy="4" r="4" transform="translate(632 1308)"></circle></g><g transform="translate(-448 -1308)"><circle class="c" cx="4" cy="4" r="4" transform="translate(632 1308)"></circle></g><g transform="translate(-425 -1308)"><circle class="c" cx="4" cy="4" r="4" transform="translate(632 1308)"></circle></g><g transform="translate(-402 -1308)"><circle class="c" cx="4" cy="4" r="4" transform="translate(632 1308)"></circle></g><g transform="translate(-379 -1308)"><circle class="c" cx="4" cy="4" r="4" transform="translate(632 1308)"></circle></g><g transform="translate(-356 -1308)"><circle class="c" cx="4" cy="4" r="4" transform="translate(632 1308)"></circle></g><g transform="translate(-333 -1308)"><circle class="c" cx="4" cy="4" r="4" transform="translate(632 1308)"></circle></g><g transform="translate(-310 -1308)"><circle class="c" cx="4" cy="4" r="4" transform="translate(632 1308)"></circle></g><g transform="translate(-287 -1308)"><circle class="c" cx="4" cy="4" r="4" transform="translate(632 1308)"></circle></g><g transform="translate(-264 -1308)"><circle class="c" cx="4" cy="4" r="4" transform="translate(632 1308)"></circle></g><g transform="translate(-241 -1308)"><circle class="c" cx="4" cy="4" r="4" transform="translate(632 1308)"></circle></g><g transform="translate(-632 -1285)"><circle class="c" cx="4" cy="4" r="4" transform="translate(632 1308)"></circle></g><g transform="translate(-609 -1285)"><circle class="c" cx="4" cy="4" r="4" transform="translate(632 1308)"></circle></g><g transform="translate(-586 -1285)"><circle class="c" cx="4" cy="4" r="4" transform="translate(632 1308)"></circle></g><g transform="translate(-563 -1285)"><circle class="c" cx="4" cy="4" r="4" transform="translate(632 1308)"></circle></g><g transform="translate(-540 -1285)"><circle class="c" cx="4" cy="4" r="4" transform="translate(632 1308)"></circle></g><g transform="translate(-517 -1285)"><circle class="c" cx="4" cy="4" r="4" transform="translate(632 1308)"></circle></g><g transform="translate(-494 -1285)"><circle class="c" cx="4" cy="4" r="4" transform="translate(632 1308)"></circle></g><g transform="translate(-471 -1285)"><circle class="c" cx="4" cy="4" r="4" transform="translate(632 1308)"></circle></g><g transform="translate(-448 -1285)"><circle class="c" cx="4" cy="4" r="4" transform="translate(632 1308)"></circle></g><g transform="translate(-425 -1285)"><circle class="c" cx="4" cy="4" r="4" transform="translate(632 1308)"></circle></g><g transform="translate(-402 -1285)"><circle class="c" cx="4" cy="4" r="4" transform="translate(632 1308)"></circle></g><g transform="translate(-379 -1285)"><circle class="c" cx="4" cy="4" r="4" transform="translate(632 1308)"></circle></g><g transform="translate(-356 -1285)"><circle class="c" cx="4" cy="4" r="4" transform="translate(632 1308)"></circle></g><g transform="translate(-333 -1285)"><circle class="c" cx="4" cy="4" r="4" transform="translate(632 1308)"></circle></g><g transform="translate(-310 -1285)"><circle class="c" cx="4" cy="4" r="4" transform="translate(632 1308)"></circle></g><g transform="translate(-287 -1285)"><circle class="c" cx="4" cy="4" r="4" transform="translate(632 1308)"></circle></g><g transform="translate(-264 -1285)"><circle class="c" cx="4" cy="4" r="4" transform="translate(632 1308)"></circle></g><g transform="translate(-241 -1285)"><circle class="c" cx="4" cy="4" r="4" transform="translate(632 1308)"></circle></g><g transform="translate(-632 -1262)"><circle class="c" cx="4" cy="4" r="4" transform="translate(632 1308)"></circle></g><g transform="translate(-609 -1262)"><circle class="c" cx="4" cy="4" r="4" transform="translate(632 1308)"></circle></g><g transform="translate(-586 -1262)"><circle class="c" cx="4" cy="4" r="4" transform="translate(632 1308)"></circle></g><g transform="translate(-563 -1262)"><circle class="c" cx="4" cy="4" r="4" transform="translate(632 1308)"></circle></g><g transform="translate(-540 -1262)"><circle class="c" cx="4" cy="4" r="4" transform="translate(632 1308)"></circle></g><g transform="translate(-517 -1262)"><circle class="c" cx="4" cy="4" r="4" transform="translate(632 1308)"></circle></g><g transform="translate(-494 -1262)"><circle class="c" cx="4" cy="4" r="4" transform="translate(632 1308)"></circle></g><g transform="translate(-471 -1262)"><circle class="c" cx="4" cy="4" r="4" transform="translate(632 1308)"></circle></g><g transform="translate(-448 -1262)"><circle class="c" cx="4" cy="4" r="4" transform="translate(632 1308)"></circle></g><g transform="translate(-425 -1262)"><circle class="c" cx="4" cy="4" r="4" transform="translate(632 1308)"></circle></g><g transform="translate(-402 -1262)"><circle class="c" cx="4" cy="4" r="4" transform="translate(632 1308)"></circle></g><g transform="translate(-379 -1262)"><circle class="c" cx="4" cy="4" r="4" transform="translate(632 1308)"></circle></g><g transform="translate(-356 -1262)"><circle class="c" cx="4" cy="4" r="4" transform="translate(632 1308)"></circle></g><g transform="translate(-333 -1262)"><circle class="c" cx="4" cy="4" r="4" transform="translate(632 1308)"></circle></g><g transform="translate(-310 -1262)"><circle class="c" cx="4" cy="4" r="4" transform="translate(632 1308)"></circle></g><g transform="translate(-287 -1262)"><circle class="c" cx="4" cy="4" r="4" transform="translate(632 1308)"></circle></g><g transform="translate(-264 -1262)"><circle class="c" cx="4" cy="4" r="4" transform="translate(632 1308)"></circle></g><g transform="translate(-241 -1262)"><circle class="c" cx="4" cy="4" r="4" transform="translate(632 1308)"></circle></g><g transform="translate(-632 -1239)"><circle class="c" cx="4" cy="4" r="4" transform="translate(632 1308)"></circle></g><g transform="translate(-609 -1239)"><circle class="c" cx="4" cy="4" r="4" transform="translate(632 1308)"></circle></g><g transform="translate(-586 -1239)"><circle class="c" cx="4" cy="4" r="4" transform="translate(632 1308)"></circle></g><g transform="translate(-563 -1239)"><circle class="c" cx="4" cy="4" r="4" transform="translate(632 1308)"></circle></g><g transform="translate(-540 -1239)"><circle class="c" cx="4" cy="4" r="4" transform="translate(632 1308)"></circle></g><g transform="translate(-517 -1239)"><circle class="c" cx="4" cy="4" r="4" transform="translate(632 1308)"></circle></g><g transform="translate(-494 -1239)"><circle class="c" cx="4" cy="4" r="4" transform="translate(632 1308)"></circle></g><g transform="translate(-471 -1239)"><circle class="c" cx="4" cy="4" r="4" transform="translate(632 1308)"></circle></g><g transform="translate(-448 -1239)"><circle class="c" cx="4" cy="4" r="4" transform="translate(632 1308)"></circle></g><g transform="translate(-425 -1239)"><circle class="c" cx="4" cy="4" r="4" transform="translate(632 1308)"></circle></g><g transform="translate(-402 -1239)"><circle class="c" cx="4" cy="4" r="4" transform="translate(632 1308)"></circle></g><g transform="translate(-379 -1239)"><circle class="c" cx="4" cy="4" r="4" transform="translate(632 1308)"></circle></g><g transform="translate(-356 -1239)"><circle class="c" cx="4" cy="4" r="4" transform="translate(632 1308)"></circle></g><g transform="translate(-333 -1239)"><circle class="c" cx="4" cy="4" r="4" transform="translate(632 1308)"></circle></g><g transform="translate(-310 -1239)"><circle class="c" cx="4" cy="4" r="4" transform="translate(632 1308)"></circle></g><g transform="translate(-287 -1239)"><circle class="c" cx="4" cy="4" r="4" transform="translate(632 1308)"></circle></g><g transform="translate(-264 -1239)"><circle class="c" cx="4" cy="4" r="4" transform="translate(632 1308)"></circle></g><g transform="translate(-241 -1239)"><circle class="c" cx="4" cy="4" r="4" transform="translate(632 1308)"></circle></g><g transform="translate(-632 -1216)"><circle class="c" cx="4" cy="4" r="4" transform="translate(632 1308)"></circle></g><g transform="translate(-609 -1216)"><circle class="c" cx="4" cy="4" r="4" transform="translate(632 1308)"></circle></g><g transform="translate(-586 -1216)"><circle class="c" cx="4" cy="4" r="4" transform="translate(632 1308)"></circle></g><g transform="translate(-563 -1216)"><circle class="c" cx="4" cy="4" r="4" transform="translate(632 1308)"></circle></g><g transform="translate(-540 -1216)"><circle class="c" cx="4" cy="4" r="4" transform="translate(632 1308)"></circle></g><g transform="translate(-517 -1216)"><circle class="c" cx="4" cy="4" r="4" transform="translate(632 1308)"></circle></g><g transform="translate(-494 -1216)"><circle class="c" cx="4" cy="4" r="4" transform="translate(632 1308)"></circle></g><g transform="translate(-471 -1216)"><circle class="c" cx="4" cy="4" r="4" transform="translate(632 1308)"></circle></g><g transform="translate(-448 -1216)"><circle class="c" cx="4" cy="4" r="4" transform="translate(632 1308)"></circle></g><g transform="translate(-425 -1216)"><circle class="c" cx="4" cy="4" r="4" transform="translate(632 1308)"></circle></g><g transform="translate(-402 -1216)"><circle class="c" cx="4" cy="4" r="4" transform="translate(632 1308)"></circle></g><g transform="translate(-379 -1216)"><circle class="c" cx="4" cy="4" r="4" transform="translate(632 1308)"></circle></g><g transform="translate(-356 -1216)"><circle class="c" cx="4" cy="4" r="4" transform="translate(632 1308)"></circle></g><g transform="translate(-333 -1216)"><circle class="c" cx="4" cy="4" r="4" transform="translate(632 1308)"></circle></g><g transform="translate(-310 -1216)"><circle class="c" cx="4" cy="4" r="4" transform="translate(632 1308)"></circle></g><g transform="translate(-287 -1216)"><circle class="c" cx="4" cy="4" r="4" transform="translate(632 1308)"></circle></g><g transform="translate(-264 -1216)"><circle class="c" cx="4" cy="4" r="4" transform="translate(632 1308)"></circle></g><g transform="translate(-241 -1216)"><circle class="c" cx="4" cy="4" r="4" transform="translate(632 1308)"></circle></g><g transform="translate(-632 -1193)"><circle class="c" cx="4" cy="4" r="4" transform="translate(632 1308)"></circle></g><g transform="translate(-609 -1193)"><circle class="c" cx="4" cy="4" r="4" transform="translate(632 1308)"></circle></g><g transform="translate(-586 -1193)"><circle class="c" cx="4" cy="4" r="4" transform="translate(632 1308)"></circle></g><g transform="translate(-563 -1193)"><circle class="c" cx="4" cy="4" r="4" transform="translate(632 1308)"></circle></g><g transform="translate(-540 -1193)"><circle class="c" cx="4" cy="4" r="4" transform="translate(632 1308)"></circle></g><g transform="translate(-517 -1193)"><circle class="c" cx="4" cy="4" r="4" transform="translate(632 1308)"></circle></g><g transform="translate(-494 -1193)"><circle class="c" cx="4" cy="4" r="4" transform="translate(632 1308)"></circle></g><g transform="translate(-471 -1193)"><circle class="c" cx="4" cy="4" r="4" transform="translate(632 1308)"></circle></g><g transform="translate(-448 -1193)"><circle class="c" cx="4" cy="4" r="4" transform="translate(632 1308)"></circle></g><g transform="translate(-425 -1193)"><circle class="c" cx="4" cy="4" r="4" transform="translate(632 1308)"></circle></g><g transform="translate(-402 -1193)"><circle class="c" cx="4" cy="4" r="4" transform="translate(632 1308)"></circle></g><g transform="translate(-379 -1193)"><circle class="c" cx="4" cy="4" r="4" transform="translate(632 1308)"></circle></g><g transform="translate(-356 -1193)"><circle class="c" cx="4" cy="4" r="4" transform="translate(632 1308)"></circle></g><g transform="translate(-333 -1193)"><circle class="c" cx="4" cy="4" r="4" transform="translate(632 1308)"></circle></g><g transform="translate(-310 -1193)"><circle class="c" cx="4" cy="4" r="4" transform="translate(632 1308)"></circle></g><g transform="translate(-287 -1193)"><circle class="c" cx="4" cy="4" r="4" transform="translate(632 1308)"></circle></g><g transform="translate(-264 -1193)"><circle class="c" cx="4" cy="4" r="4" transform="translate(632 1308)"></circle></g><g transform="translate(-241 -1193)"><circle class="c" cx="4" cy="4" r="4" transform="translate(632 1308)"></circle></g><g transform="translate(-632 -1170)"><circle class="c" cx="4" cy="4" r="4" transform="translate(632 1308)"></circle></g><g transform="translate(-609 -1170)"><circle class="c" cx="4" cy="4" r="4" transform="translate(632 1308)"></circle></g><g transform="translate(-586 -1170)"><circle class="c" cx="4" cy="4" r="4" transform="translate(632 1308)"></circle></g><g transform="translate(-563 -1170)"><circle class="c" cx="4" cy="4" r="4" transform="translate(632 1308)"></circle></g><g transform="translate(-540 -1170)"><circle class="c" cx="4" cy="4" r="4" transform="translate(632 1308)"></circle></g><g transform="translate(-517 -1170)"><circle class="c" cx="4" cy="4" r="4" transform="translate(632 1308)"></circle></g><g transform="translate(-494 -1170)"><circle class="c" cx="4" cy="4" r="4" transform="translate(632 1308)"></circle></g><g transform="translate(-471 -1170)"><circle class="c" cx="4" cy="4" r="4" transform="translate(632 1308)"></circle></g><g transform="translate(-448 -1170)"><circle class="c" cx="4" cy="4" r="4" transform="translate(632 1308)"></circle></g><g transform="translate(-425 -1170)"><circle class="c" cx="4" cy="4" r="4" transform="translate(632 1308)"></circle></g><g transform="translate(-402 -1170)"><circle class="c" cx="4" cy="4" r="4" transform="translate(632 1308)"></circle></g><g transform="translate(-379 -1170)"><circle class="c" cx="4" cy="4" r="4" transform="translate(632 1308)"></circle></g><g transform="translate(-356 -1170)"><circle class="c" cx="4" cy="4" r="4" transform="translate(632 1308)"></circle></g><g transform="translate(-333 -1170)"><circle class="c" cx="4" cy="4" r="4" transform="translate(632 1308)"></circle></g><g transform="translate(-310 -1170)"><circle class="c" cx="4" cy="4" r="4" transform="translate(632 1308)"></circle></g><g transform="translate(-287 -1170)"><circle class="c" cx="4" cy="4" r="4" transform="translate(632 1308)"></circle></g><g transform="translate(-264 -1170)"><circle class="c" cx="4" cy="4" r="4" transform="translate(632 1308)"></circle></g><g transform="translate(-241 -1170)"><circle class="c" cx="4" cy="4" r="4" transform="translate(632 1308)"></circle></g><g transform="translate(-632 -1147)"><circle class="c" cx="4" cy="4" r="4" transform="translate(632 1308)"></circle></g><g transform="translate(-609 -1147)"><circle class="c" cx="4" cy="4" r="4" transform="translate(632 1308)"></circle></g><g transform="translate(-586 -1147)"><circle class="c" cx="4" cy="4" r="4" transform="translate(632 1308)"></circle></g><g transform="translate(-563 -1147)"><circle class="c" cx="4" cy="4" r="4" transform="translate(632 1308)"></circle></g><g transform="translate(-540 -1147)"><circle class="c" cx="4" cy="4" r="4" transform="translate(632 1308)"></circle></g><g transform="translate(-517 -1147)"><circle class="c" cx="4" cy="4" r="4" transform="translate(632 1308)"></circle></g><g transform="translate(-494 -1147)"><circle class="c" cx="4" cy="4" r="4" transform="translate(632 1308)"></circle></g><g transform="translate(-471 -1147)"><circle class="c" cx="4" cy="4" r="4" transform="translate(632 1308)"></circle></g><g transform="translate(-448 -1147)"><circle class="c" cx="4" cy="4" r="4" transform="translate(632 1308)"></circle></g><g transform="translate(-425 -1147)"><circle class="c" cx="4" cy="4" r="4" transform="translate(632 1308)"></circle></g><g transform="translate(-402 -1147)"><circle class="c" cx="4" cy="4" r="4" transform="translate(632 1308)"></circle></g><g transform="translate(-379 -1147)"><circle class="c" cx="4" cy="4" r="4" transform="translate(632 1308)"></circle></g><g transform="translate(-356 -1147)"><circle class="c" cx="4" cy="4" r="4" transform="translate(632 1308)"></circle></g><g transform="translate(-333 -1147)"><circle class="c" cx="4" cy="4" r="4" transform="translate(632 1308)"></circle></g><g transform="translate(-310 -1147)"><circle class="c" cx="4" cy="4" r="4" transform="translate(632 1308)"></circle></g><g transform="translate(-287 -1147)"><circle class="c" cx="4" cy="4" r="4" transform="translate(632 1308)"></circle></g><g transform="translate(-264 -1147)"><circle class="c" cx="4" cy="4" r="4" transform="translate(632 1308)"></circle></g><g transform="translate(-241 -1147)"><circle class="c" cx="4" cy="4" r="4" transform="translate(632 1308)"></circle></g><g transform="translate(-632 -1124)"><circle class="c" cx="4" cy="4" r="4" transform="translate(632 1308)"></circle></g><g transform="translate(-609 -1124)"><circle class="c" cx="4" cy="4" r="4" transform="translate(632 1308)"></circle></g><g transform="translate(-586 -1124)"><circle class="c" cx="4" cy="4" r="4" transform="translate(632 1308)"></circle></g><g transform="translate(-563 -1124)"><circle class="c" cx="4" cy="4" r="4" transform="translate(632 1308)"></circle></g><g transform="translate(-540 -1124)"><circle class="c" cx="4" cy="4" r="4" transform="translate(632 1308)"></circle></g><g transform="translate(-517 -1124)"><circle class="c" cx="4" cy="4" r="4" transform="translate(632 1308)"></circle></g><g transform="translate(-494 -1124)"><circle class="c" cx="4" cy="4" r="4" transform="translate(632 1308)"></circle></g><g transform="translate(-471 -1124)"><circle class="c" cx="4" cy="4" r="4" transform="translate(632 1308)"></circle></g><g transform="translate(-448 -1124)"><circle class="c" cx="4" cy="4" r="4" transform="translate(632 1308)"></circle></g><g transform="translate(-425 -1124)"><circle class="c" cx="4" cy="4" r="4" transform="translate(632 1308)"></circle></g><g transform="translate(-402 -1124)"><circle class="c" cx="4" cy="4" r="4" transform="translate(632 1308)"></circle></g><g transform="translate(-379 -1124)"><circle class="c" cx="4" cy="4" r="4" transform="translate(632 1308)"></circle></g><g transform="translate(-356 -1124)"><circle class="c" cx="4" cy="4" r="4" transform="translate(632 1308)"></circle></g><g transform="translate(-333 -1124)"><circle class="c" cx="4" cy="4" r="4" transform="translate(632 1308)"></circle></g><g transform="translate(-310 -1124)"><circle class="c" cx="4" cy="4" r="4" transform="translate(632 1308)"></circle></g><g transform="translate(-287 -1124)"><circle class="c" cx="4" cy="4" r="4" transform="translate(632 1308)"></circle></g><g transform="translate(-264 -1124)"><circle class="c" cx="4" cy="4" r="4" transform="translate(632 1308)"></circle></g><g transform="translate(-241 -1124)"><circle class="c" cx="4" cy="4" r="4" transform="translate(632 1308)"></circle></g><g transform="translate(-632 -1101)"><circle class="c" cx="4" cy="4" r="4" transform="translate(632 1308)"></circle></g><g transform="translate(-609 -1101)"><circle class="c" cx="4" cy="4" r="4" transform="translate(632 1308)"></circle></g><g transform="translate(-586 -1101)"><circle class="c" cx="4" cy="4" r="4" transform="translate(632 1308)"></circle></g><g transform="translate(-563 -1101)"><circle class="c" cx="4" cy="4" r="4" transform="translate(632 1308)"></circle></g><g transform="translate(-540 -1101)"><circle class="c" cx="4" cy="4" r="4" transform="translate(632 1308)"></circle></g><g transform="translate(-517 -1101)"><circle class="c" cx="4" cy="4" r="4" transform="translate(632 1308)"></circle></g><g transform="translate(-494 -1101)"><circle class="c" cx="4" cy="4" r="4" transform="translate(632 1308)"></circle></g><g transform="translate(-471 -1101)"><circle class="c" cx="4" cy="4" r="4" transform="translate(632 1308)"></circle></g><g transform="translate(-448 -1101)"><circle class="c" cx="4" cy="4" r="4" transform="translate(632 1308)"></circle></g><g transform="translate(-425 -1101)"><circle class="c" cx="4" cy="4" r="4" transform="translate(632 1308)"></circle></g><g transform="translate(-402 -1101)"><circle class="c" cx="4" cy="4" r="4" transform="translate(632 1308)"></circle></g><g transform="translate(-379 -1101)"><circle class="c" cx="4" cy="4" r="4" transform="translate(632 1308)"></circle></g><g transform="translate(-356 -1101)"><circle class="c" cx="4" cy="4" r="4" transform="translate(632 1308)"></circle></g><g transform="translate(-333 -1101)"><circle class="c" cx="4" cy="4" r="4" transform="translate(632 1308)"></circle></g><g transform="translate(-310 -1101)"><circle class="c" cx="4" cy="4" r="4" transform="translate(632 1308)"></circle></g><g transform="translate(-287 -1101)"><circle class="c" cx="4" cy="4" r="4" transform="translate(632 1308)"></circle></g><g transform="translate(-264 -1101)"><circle class="c" cx="4" cy="4" r="4" transform="translate(632 1308)"></circle></g><g transform="translate(-241 -1101)"><circle class="c" cx="4" cy="4" r="4" transform="translate(632 1308)"></circle></g><g transform="translate(-632 -1078)"><circle class="c" cx="4" cy="4" r="4" transform="translate(632 1308)"></circle></g><g transform="translate(-609 -1078)"><circle class="c" cx="4" cy="4" r="4" transform="translate(632 1308)"></circle></g><g transform="translate(-586 -1078)"><circle class="c" cx="4" cy="4" r="4" transform="translate(632 1308)"></circle></g><g transform="translate(-563 -1078)"><circle class="c" cx="4" cy="4" r="4" transform="translate(632 1308)"></circle></g><g transform="translate(-540 -1078)"><circle class="c" cx="4" cy="4" r="4" transform="translate(632 1308)"></circle></g><g transform="translate(-517 -1078)"><circle class="c" cx="4" cy="4" r="4" transform="translate(632 1308)"></circle></g><g transform="translate(-494 -1078)"><circle class="c" cx="4" cy="4" r="4" transform="translate(632 1308)"></circle></g><g transform="translate(-471 -1078)"><circle class="c" cx="4" cy="4" r="4" transform="translate(632 1308)"></circle></g><g transform="translate(-448 -1078)"><circle class="c" cx="4" cy="4" r="4" transform="translate(632 1308)"></circle></g><g transform="translate(-425 -1078)"><circle class="c" cx="4" cy="4" r="4" transform="translate(632 1308)"></circle></g><g transform="translate(-402 -1078)"><circle class="c" cx="4" cy="4" r="4" transform="translate(632 1308)"></circle></g><g transform="translate(-379 -1078)"><circle class="c" cx="4" cy="4" r="4" transform="translate(632 1308)"></circle></g><g transform="translate(-356 -1078)"><circle class="c" cx="4" cy="4" r="4" transform="translate(632 1308)"></circle></g><g transform="translate(-333 -1078)"><circle class="c" cx="4" cy="4" r="4" transform="translate(632 1308)"></circle></g><g transform="translate(-310 -1078)"><circle class="c" cx="4" cy="4" r="4" transform="translate(632 1308)"></circle></g><g transform="translate(-287 -1078)"><circle class="c" cx="4" cy="4" r="4" transform="translate(632 1308)"></circle></g><g transform="translate(-264 -1078)"><circle class="c" cx="4" cy="4" r="4" transform="translate(632 1308)"></circle></g><g transform="translate(-241 -1078)"><circle class="c" cx="4" cy="4" r="4" transform="translate(632 1308)"></circle></g><g transform="translate(-632 -1055)"><circle class="c" cx="4" cy="4" r="4" transform="translate(632 1308)"></circle></g><g transform="translate(-609 -1055)"><circle class="c" cx="4" cy="4" r="4" transform="translate(632 1308)"></circle></g><g transform="translate(-586 -1055)"><circle class="c" cx="4" cy="4" r="4" transform="translate(632 1308)"></circle></g><g transform="translate(-563 -1055)"><circle class="c" cx="4" cy="4" r="4" transform="translate(632 1308)"></circle></g><g transform="translate(-540 -1055)"><circle class="c" cx="4" cy="4" r="4" transform="translate(632 1308)"></circle></g><g transform="translate(-517 -1055)"><circle class="c" cx="4" cy="4" r="4" transform="translate(632 1308)"></circle></g><g transform="translate(-494 -1055)"><circle class="c" cx="4" cy="4" r="4" transform="translate(632 1308)"></circle></g><g transform="translate(-471 -1055)"><circle class="c" cx="4" cy="4" r="4" transform="translate(632 1308)"></circle></g><g transform="translate(-448 -1055)"><circle class="c" cx="4" cy="4" r="4" transform="translate(632 1308)"></circle></g><g transform="translate(-425 -1055)"><circle class="c" cx="4" cy="4" r="4" transform="translate(632 1308)"></circle></g><g transform="translate(-402 -1055)"><circle class="c" cx="4" cy="4" r="4" transform="translate(632 1308)"></circle></g><g transform="translate(-379 -1055)"><circle class="c" cx="4" cy="4" r="4" transform="translate(632 1308)"></circle></g><g transform="translate(-356 -1055)"><circle class="c" cx="4" cy="4" r="4" transform="translate(632 1308)"></circle></g><g transform="translate(-333 -1055)"><circle class="c" cx="4" cy="4" r="4" transform="translate(632 1308)"></circle></g><g transform="translate(-310 -1055)"><circle class="c" cx="4" cy="4" r="4" transform="translate(632 1308)"></circle></g><g transform="translate(-287 -1055)"><circle class="c" cx="4" cy="4" r="4" transform="translate(632 1308)"></circle></g><g transform="translate(-264 -1055)"><circle class="c" cx="4" cy="4" r="4" transform="translate(632 1308)"></circle></g><g transform="translate(-241 -1055)"><circle class="c" cx="4" cy="4" r="4" transform="translate(632 1308)"></circle></g><g transform="translate(-632 -1032)"><circle class="c" cx="4" cy="4" r="4" transform="translate(632 1308)"></circle></g><g transform="translate(-609 -1032)"><circle class="c" cx="4" cy="4" r="4" transform="translate(632 1308)"></circle></g><g transform="translate(-586 -1032)"><circle class="c" cx="4" cy="4" r="4" transform="translate(632 1308)"></circle></g><g transform="translate(-563 -1032)"><circle class="c" cx="4" cy="4" r="4" transform="translate(632 1308)"></circle></g><g transform="translate(-540 -1032)"><circle class="c" cx="4" cy="4" r="4" transform="translate(632 1308)"></circle></g><g transform="translate(-517 -1032)"><circle class="c" cx="4" cy="4" r="4" transform="translate(632 1308)"></circle></g><g transform="translate(-494 -1032)"><circle class="c" cx="4" cy="4" r="4" transform="translate(632 1308)"></circle></g><g transform="translate(-471 -1032)"><circle class="c" cx="4" cy="4" r="4" transform="translate(632 1308)"></circle></g><g transform="translate(-448 -1032)"><circle class="c" cx="4" cy="4" r="4" transform="translate(632 1308)"></circle></g><g transform="translate(-425 -1032)"><circle class="c" cx="4" cy="4" r="4" transform="translate(632 1308)"></circle></g><g transform="translate(-402 -1032)"><circle class="c" cx="4" cy="4" r="4" transform="translate(632 1308)"></circle></g><g transform="translate(-379 -1032)"><circle class="c" cx="4" cy="4" r="4" transform="translate(632 1308)"></circle></g><g transform="translate(-356 -1032)"><circle class="c" cx="4" cy="4" r="4" transform="translate(632 1308)"></circle></g><g transform="translate(-333 -1032)"><circle class="c" cx="4" cy="4" r="4" transform="translate(632 1308)"></circle></g><g transform="translate(-310 -1032)"><circle class="c" cx="4" cy="4" r="4" transform="translate(632 1308)"></circle></g><g transform="translate(-287 -1032)"><circle class="c" cx="4" cy="4" r="4" transform="translate(632 1308)"></circle></g><g transform="translate(-264 -1032)"><circle class="c" cx="4" cy="4" r="4" transform="translate(632 1308)"></circle></g><g transform="translate(-241 -1032)"><circle class="c" cx="4" cy="4" r="4" transform="translate(632 1308)"></circle></g><g transform="translate(-632 -1009)"><circle class="c" cx="4" cy="4" r="4" transform="translate(632 1308)"></circle></g><g transform="translate(-609 -1009)"><circle class="c" cx="4" cy="4" r="4" transform="translate(632 1308)"></circle></g><g transform="translate(-586 -1009)"><circle class="c" cx="4" cy="4" r="4" transform="translate(632 1308)"></circle></g><g transform="translate(-563 -1009)"><circle class="c" cx="4" cy="4" r="4" transform="translate(632 1308)"></circle></g><g transform="translate(-540 -1009)"><circle class="c" cx="4" cy="4" r="4" transform="translate(632 1308)"></circle></g><g transform="translate(-517 -1009)"><circle class="c" cx="4" cy="4" r="4" transform="translate(632 1308)"></circle></g><g transform="translate(-494 -1009)"><circle class="c" cx="4" cy="4" r="4" transform="translate(632 1308)"></circle></g><g transform="translate(-471 -1009)"><circle class="c" cx="4" cy="4" r="4" transform="translate(632 1308)"></circle></g><g transform="translate(-448 -1009)"><circle class="c" cx="4" cy="4" r="4" transform="translate(632 1308)"></circle></g><g transform="translate(-425 -1009)"><circle class="c" cx="4" cy="4" r="4" transform="translate(632 1308)"></circle></g><g transform="translate(-402 -1009)"><circle class="c" cx="4" cy="4" r="4" transform="translate(632 1308)"></circle></g><g transform="translate(-379 -1009)"><circle class="c" cx="4" cy="4" r="4" transform="translate(632 1308)"></circle></g><g transform="translate(-356 -1009)"><circle class="c" cx="4" cy="4" r="4" transform="translate(632 1308)"></circle></g><g transform="translate(-333 -1009)"><circle class="c" cx="4" cy="4" r="4" transform="translate(632 1308)"></circle></g><g transform="translate(-310 -1009)"><circle class="c" cx="4" cy="4" r="4" transform="translate(632 1308)"></circle></g><g transform="translate(-287 -1009)"><circle class="c" cx="4" cy="4" r="4" transform="translate(632 1308)"></circle></g><g transform="translate(-264 -1009)"><circle class="c" cx="4" cy="4" r="4" transform="translate(632 1308)"></circle></g><g transform="translate(-241 -1009)"><circle class="c" cx="4" cy="4" r="4" transform="translate(632 1308)"></circle></g><g transform="translate(-632 -986)"><circle class="c" cx="4" cy="4" r="4" transform="translate(632 1308)"></circle></g><g transform="translate(-609 -986)"><circle class="c" cx="4" cy="4" r="4" transform="translate(632 1308)"></circle></g><g transform="translate(-586 -986)"><circle class="c" cx="4" cy="4" r="4" transform="translate(632 1308)"></circle></g><g transform="translate(-563 -986)"><circle class="c" cx="4" cy="4" r="4" transform="translate(632 1308)"></circle></g><g transform="translate(-540 -986)"><circle class="c" cx="4" cy="4" r="4" transform="translate(632 1308)"></circle></g><g transform="translate(-517 -986)"><circle class="c" cx="4" cy="4" r="4" transform="translate(632 1308)"></circle></g><g transform="translate(-494 -986)"><circle class="c" cx="4" cy="4" r="4" transform="translate(632 1308)"></circle></g><g transform="translate(-471 -986)"><circle class="c" cx="4" cy="4" r="4" transform="translate(632 1308)"></circle></g><g transform="translate(-448 -986)"><circle class="c" cx="4" cy="4" r="4" transform="translate(632 1308)"></circle></g><g transform="translate(-425 -986)"><circle class="c" cx="4" cy="4" r="4" transform="translate(632 1308)"></circle></g><g transform="translate(-402 -986)"><circle class="c" cx="4" cy="4" r="4" transform="translate(632 1308)"></circle></g><g transform="translate(-379 -986)"><circle class="c" cx="4" cy="4" r="4" transform="translate(632 1308)"></circle></g><g transform="translate(-356 -986)"><circle class="c" cx="4" cy="4" r="4" transform="translate(632 1308)"></circle></g><g transform="translate(-333 -986)"><circle class="c" cx="4" cy="4" r="4" transform="translate(632 1308)"></circle></g><g transform="translate(-310 -986)"><circle class="c" cx="4" cy="4" r="4" transform="translate(632 1308)"></circle></g><g transform="translate(-287 -986)"><circle class="c" cx="4" cy="4" r="4" transform="translate(632 1308)"></circle></g><g transform="translate(-264 -986)"><circle class="c" cx="4" cy="4" r="4" transform="translate(632 1308)"></circle></g><g transform="translate(-241 -986)"><circle class="c" cx="4" cy="4" r="4" transform="translate(632 1308)"></circle></g><g transform="translate(-632 -963)"><circle class="c" cx="4" cy="4" r="4" transform="translate(632 1308)"></circle></g><g transform="translate(-609 -963)"><circle class="c" cx="4" cy="4" r="4" transform="translate(632 1308)"></circle></g><g transform="translate(-586 -963)"><circle class="c" cx="4" cy="4" r="4" transform="translate(632 1308)"></circle></g><g transform="translate(-563 -963)"><circle class="c" cx="4" cy="4" r="4" transform="translate(632 1308)"></circle></g><g transform="translate(-540 -963)"><circle class="c" cx="4" cy="4" r="4" transform="translate(632 1308)"></circle></g><g transform="translate(-517 -963)"><circle class="c" cx="4" cy="4" r="4" transform="translate(632 1308)"></circle></g><g transform="translate(-494 -963)"><circle class="c" cx="4" cy="4" r="4" transform="translate(632 1308)"></circle></g><g transform="translate(-471 -963)"><circle class="c" cx="4" cy="4" r="4" transform="translate(632 1308)"></circle></g><g transform="translate(-448 -963)"><circle class="c" cx="4" cy="4" r="4" transform="translate(632 1308)"></circle></g><g transform="translate(-425 -963)"><circle class="c" cx="4" cy="4" r="4" transform="translate(632 1308)"></circle></g><g transform="translate(-402 -963)"><circle class="c" cx="4" cy="4" r="4" transform="translate(632 1308)"></circle></g><g transform="translate(-379 -963)"><circle class="c" cx="4" cy="4" r="4" transform="translate(632 1308)"></circle></g><g transform="translate(-356 -963)"><circle class="c" cx="4" cy="4" r="4" transform="translate(632 1308)"></circle></g><g transform="translate(-333 -963)"><circle class="c" cx="4" cy="4" r="4" transform="translate(632 1308)"></circle></g><g transform="translate(-310 -963)"><circle class="c" cx="4" cy="4" r="4" transform="translate(632 1308)"></circle></g><g transform="translate(-287 -963)"><circle class="c" cx="4" cy="4" r="4" transform="translate(632 1308)"></circle></g><g transform="translate(-264 -963)"><circle class="c" cx="4" cy="4" r="4" transform="translate(632 1308)"></circle></g><g transform="translate(-241 -963)"><circle class="c" cx="4" cy="4" r="4" transform="translate(632 1308)"></circle></g><g transform="translate(-632 -940)"><circle class="c" cx="4" cy="4" r="4" transform="translate(632 1308)"></circle></g><g transform="translate(-609 -940)"><circle class="c" cx="4" cy="4" r="4" transform="translate(632 1308)"></circle></g><g transform="translate(-586 -940)"><circle class="c" cx="4" cy="4" r="4" transform="translate(632 1308)"></circle></g><g transform="translate(-563 -940)"><circle class="c" cx="4" cy="4" r="4" transform="translate(632 1308)"></circle></g><g transform="translate(-540 -940)"><circle class="c" cx="4" cy="4" r="4" transform="translate(632 1308)"></circle></g><g transform="translate(-517 -940)"><circle class="c" cx="4" cy="4" r="4" transform="translate(632 1308)"></circle></g><g transform="translate(-494 -940)"><circle class="c" cx="4" cy="4" r="4" transform="translate(632 1308)"></circle></g><g transform="translate(-471 -940)"><circle class="c" cx="4" cy="4" r="4" transform="translate(632 1308)"></circle></g><g transform="translate(-448 -940)"><circle class="c" cx="4" cy="4" r="4" transform="translate(632 1308)"></circle></g><g transform="translate(-425 -940)"><circle class="c" cx="4" cy="4" r="4" transform="translate(632 1308)"></circle></g><g transform="translate(-402 -940)"><circle class="c" cx="4" cy="4" r="4" transform="translate(632 1308)"></circle></g><g transform="translate(-379 -940)"><circle class="c" cx="4" cy="4" r="4" transform="translate(632 1308)"></circle></g><g transform="translate(-356 -940)"><circle class="c" cx="4" cy="4" r="4" transform="translate(632 1308)"></circle></g><g transform="translate(-333 -940)"><circle class="c" cx="4" cy="4" r="4" transform="translate(632 1308)"></circle></g><g transform="translate(-310 -940)"><circle class="c" cx="4" cy="4" r="4" transform="translate(632 1308)"></circle></g><g transform="translate(-287 -940)"><circle class="c" cx="4" cy="4" r="4" transform="translate(632 1308)"></circle></g><g transform="translate(-264 -940)"><circle class="c" cx="4" cy="4" r="4" transform="translate(632 1308)"></circle></g><g transform="translate(-241 -940)"><circle class="c" cx="4" cy="4" r="4" transform="translate(632 1308)"></circle></g><g transform="translate(-632 -917)"><circle class="c" cx="4" cy="4" r="4" transform="translate(632 1308)"></circle></g><g transform="translate(-609 -917)"><circle class="c" cx="4" cy="4" r="4" transform="translate(632 1308)"></circle></g><g transform="translate(-586 -917)"><circle class="c" cx="4" cy="4" r="4" transform="translate(632 1308)"></circle></g><g transform="translate(-563 -917)"><circle class="c" cx="4" cy="4" r="4" transform="translate(632 1308)"></circle></g><g transform="translate(-540 -917)"><circle class="c" cx="4" cy="4" r="4" transform="translate(632 1308)"></circle></g><g transform="translate(-517 -917)"><circle class="c" cx="4" cy="4" r="4" transform="translate(632 1308)"></circle></g><g transform="translate(-494 -917)"><circle class="c" cx="4" cy="4" r="4" transform="translate(632 1308)"></circle></g><g transform="translate(-471 -917)"><circle class="c" cx="4" cy="4" r="4" transform="translate(632 1308)"></circle></g><g transform="translate(-448 -917)"><circle class="c" cx="4" cy="4" r="4" transform="translate(632 1308)"></circle></g><g transform="translate(-425 -917)"><circle class="c" cx="4" cy="4" r="4" transform="translate(632 1308)"></circle></g><g transform="translate(-402 -917)"><circle class="c" cx="4" cy="4" r="4" transform="translate(632 1308)"></circle></g><g transform="translate(-379 -917)"><circle class="c" cx="4" cy="4" r="4" transform="translate(632 1308)"></circle></g><g transform="translate(-356 -917)"><circle class="c" cx="4" cy="4" r="4" transform="translate(632 1308)"></circle></g><g transform="translate(-333 -917)"><circle class="c" cx="4" cy="4" r="4" transform="translate(632 1308)"></circle></g><g transform="translate(-310 -917)"><circle class="c" cx="4" cy="4" r="4" transform="translate(632 1308)"></circle></g><g transform="translate(-287 -917)"><circle class="c" cx="4" cy="4" r="4" transform="translate(632 1308)"></circle></g><g transform="translate(-264 -917)"><circle class="c" cx="4" cy="4" r="4" transform="translate(632 1308)"></circle></g><g transform="translate(-241 -917)"><circle class="c" cx="4" cy="4" r="4" transform="translate(632 1308)"></circle></g></g></svg> 